
<svg width="1031px" height="677px" viewBox="0 0 1031 677" version="1.1" xmlns="http://www.w3.org/2000/svg" xmlns:xlink="http://www.w3.org/1999/xlink">
    <g id="Page-1" stroke="none" stroke-width="1" fill="none" fill-rule="evenodd">
        <g id="1---Hjem" transform="translate(-242.000000, -160.000000)" fill="#7000C0">
            <g id="Group" transform="translate(242.000000, 160.000000)">
                <path d="M27.063583,5.02804136 C17.0989254,15.0841241 -33.9139,142.064686 37.0282406,216.381601 C107.970381,290.698516 258.390344,209.446177 300.585649,346.461109 C342.780954,483.476041 378.709722,724.502013 688.056104,668.786401 C997.402486,613.070788 984.499459,270.182157 951.789952,161.631164 C929.983614,89.2638352 919.020442,37.0627944 918.900438,5.02804136 C330.98564,-1.67601379 33.706688,-1.67601379 27.063583,5.02804136 Z" id="Path-2-Copy" opacity="0.2"></path>
                <path d="M48.063583,5.02804136 C38.0989254,15.0841241 -12.9139,142.064686 58.0282406,216.381601 C128.970381,290.698516 279.390344,209.446177 321.585649,346.461109 C363.780954,483.476041 399.709722,724.502013 709.056104,668.786401 C1018.40249,613.070788 1005.49946,270.182157 972.789952,161.631164 C950.983614,89.2638352 940.020442,37.0627944 939.900438,5.02804136 C351.98564,-1.67601379 54.706688,-1.67601379 48.063583,5.02804136 Z" id="Path-2-Copy" opacity="0.5"></path>
                <path d="M90.063583,5.02804136 C80.0989254,15.0841241 29.0861,142.064686 100.028241,216.381601 C170.970381,290.698516 321.390344,209.446177 363.585649,346.461109 C405.780954,483.476041 441.709722,724.502013 751.056104,668.786401 C1060.40249,613.070788 1047.49946,270.182157 1014.78995,161.631164 C992.983614,89.2638352 982.020442,37.0627944 981.900438,5.02804136 C393.98564,-1.67601379 96.706688,-1.67601379 90.063583,5.02804136 Z" id="Path-2-Copy" opacity="0.9"></path>
            </g>
        </g>
    </g>
</svg>