
<svg width="263px" height="240px" viewBox="0 0 263 240" version="1.1" xmlns="http://www.w3.org/2000/svg" xmlns:xlink="http://www.w3.org/1999/xlink">
    <!-- Generator: Sketch 48.2 (47327) - http://www.bohemiancoding.com/sketch -->
    <desc>Created with Sketch.</desc>
    <defs>
        <polygon id="path-1" points="0.000178871055 0.00485345193 262.764337 0.00485345193 262.764337 239.554264 0.000178871055 239.554264"></polygon>
    </defs>
    <g id="Page-1" stroke="none" stroke-width="1" fill="none" fill-rule="evenodd">
        <g id="7---Kontakt" transform="translate(-120.000000, -506.000000)">
            <g id="Group" transform="translate(120.000000, 506.000000)">
                <g id="Page-1">
                    <path d="M110.772233,104.194513 C100.428258,96.6398997 88.9486887,89.9025081 75.6236034,92.2014122 C63.2851972,94.3297494 54.9656236,104.974716 54.050124,117.116828 C53.3444166,126.471765 69.1074002,128.786132 70.6012333,119.358564 C71.562625,113.295005 75.4170891,108.885102 81.942658,109.411329 C89.4830033,110.01909 95.9125735,115.303383 101.761469,119.619569 C105.64403,122.48453 111.723791,120.265755 113.974374,116.415348 C116.61785,111.892514 114.67774,107.046822 110.772233,104.194513" id="Fill-1" fill="#7000C0"></path>
                    <path d="M198.410145,103.641136 C194.316537,91.1275613 179.680493,82.7535205 166.700057,83.6555346 C153.811388,84.5509988 140.209863,93.8607389 137.795514,107.021817 C137.065154,111.00275 138.549998,115.028128 142.560352,116.623963 C146.116597,118.038741 151.001113,116.98795 152.836945,113.293342 C155.714864,107.500427 159.675077,102.032669 166.700057,101.235453 C173.946415,100.412973 178.532448,105.047492 182.337034,110.343082 C184.869167,113.866925 189.082925,115.74347 193.318442,113.901546 C197.154249,112.23413 199.783353,107.839618 198.410145,103.641136" id="Fill-3" fill="#7000C0"></path>
                    <path d="M180.591248,126.403101 C175.402109,126.403101 171.991347,130.49143 171.600142,135.300734 C170.221474,152.244577 153.208298,162.958206 137.347476,163.9167 C117.077091,165.14217 98.1419063,155.444545 81.159913,145.544935 C75.0296133,141.971387 67.7516837,150.682464 73.3745505,155.530108 C92.9820602,172.433273 117.052995,184.526199 143.762675,180.758615 C167.55816,177.40295 187.604594,159.608619 189.582354,135.300734 C189.972615,130.504522 185.170901,126.403101 180.591248,126.403101" id="Fill-5" fill="#7000C0"></path>
                    <g id="Group-9">
                        <mask id="mask-2" fill="white">
                            <use xlink:href="#path-1"></use>
                        </mask>
                        <g id="Clip-8"></g>
                        <path d="M208.434051,201.976846 C166.048161,231.865847 110.811091,223.961974 66.8363597,201.893687 C44.3107396,190.588805 21.6639887,173.616834 18.3265281,146.738563 C14.6600819,117.213381 31.7381142,89.6315666 49.6805586,67.8496108 C52.4010532,64.5468805 51.9942987,60.621876 50.1061661,57.8232963 C70.648917,34.0913594 100.821804,18.9758161 132.554309,17.984052 C174.952455,16.6596524 213.725159,42.6945232 232.976947,79.8981981 C253.896288,120.325224 247.111077,174.703097 208.434051,201.976846 M257.282295,92.0965658 C242.67684,45.5030252 201.097388,7.771575 152.394313,1.10988751 C103.958008,-5.51541799 53.7240658,18.1489523 26.6591034,58.7281216 C23.4309905,63.5674012 20.6327271,68.6443451 18.2058686,73.9310762 C16.8489206,76.8879412 16.7621966,80.2327235 18.202098,82.90184 C8.09026649,98.6018579 0.983610573,115.925364 0.0862055556,135.237595 C-0.578835663,149.539977 2.60685789,164.023797 9.82286147,176.425336 C16.5486858,187.98442 26.3310604,197.274117 37.0820102,205.033407 C48.293917,213.124861 60.7831177,219.233731 73.4961984,224.556844 C87.5058973,230.422379 102.090614,234.946978 117.094811,237.38788 C145.286243,241.973903 173.772254,239.539144 199.898806,227.583638 C224.762204,216.206464 244.429702,196.196832 254.701784,170.776675 C264.681173,146.081324 265.226026,117.437343 257.282295,92.0965658" id="Fill-7" fill="#7000C0" mask="url(#mask-2)"></path>
                    </g>
                </g>
            </g>
        </g>
    </g>
</svg>